<svg xmlns="http://www.w3.org/2000/svg" viewBox="0 0 32 32" width="35" height="35" aria-hidden="true"><path fill="#fff" d="M16 0C7.2 0 0 7.2 0 16c0 2.8.7 5.5 2.1 7.9L0 32l8.3-2.2C10.6 31.3 13.3 32 16 32c8.8 0 16-7.2 16-16S24.8 0 16 0zm0 29.3c-2.5 0-4.9-.7-7-1.9l-.5-.3-5.2 1.4 1.4-5-.3-.5C3.1 20.7 2.4 18.4 2.4 16 2.4 8.5 8.5 2.4 16 2.4S29.6 8.5 29.6 16 23.5 29.3 16 29.3z"/><path fill="#fff" d="M23.4 19.2c-.4-.2-2.4-1.2-2.8-1.3-.4-.1-.6-.2-.9.2-.3.4-1 1.3-1.3 1.5-.2.3-.5.3-.9.1s-1.7-.6-3.2-2c-1.2-1-2-2.3-2.2-2.7-.2-.4 0-.6.2-.8.2-.2.4-.5.6-.7.2-.2.3-.4.4-.7.1-.3.1-.5 0-.7-.1-.2-.9-2.2-1.3-3-.3-.8-.7-.7-.9-.7h-.8c-.3 0-.7.1-1.1.5-.4.4-1.4 1.4-1.4 3.4s1.5 4 1.7 4.2c.2.3 2.9 4.4 7 6.2 1 .4 1.7.7 2.3.9.9.3 1.8.2 2.5.2.8-.1 2.4-1 2.7-1.9.3-1 .3-1.8.2-1.9-.1-.2-.4-.3-.8-.5z"/></svg>
